PathFileType	4	(X/Y/Z)	D:\telocate\uwb06-Unnamed.trc
DataRate	CameraRate	NumFrames	NumMarkers	Units	OrigDataRate	OrigDataStartFrame	OrigNumFrames
100.00	100.00	     108	0	mm	100.00	8257	     16512
Frame#	Time	
		

8257	82.560	-1131.60120	916.97913	1129.11145	
8258	82.570	-1133.99292	908.44183	1129.14124	
8259	82.580	-1136.54272	899.04382	1129.29224	
8260	82.590	-1139.46301	889.26050	1129.85632	
8261	82.600	-1142.34998	880.02448	1130.49414	
8262	82.610	-1145.00989	870.92407	1130.45886	
8263	82.620	-1146.56494	862.17352	1130.75610	
8264	82.630	-1149.48499	852.50171	1131.76599	
8265	82.640	-1152.12280	843.05145	1132.45105	
8266	82.650	-1153.69177	834.34241	1133.03589	
8267	82.660	-1154.53687	826.96991	1133.01099	
8268	82.670	-1157.07495	817.28259	1133.99670	
8269	82.680	-1158.88135	808.22656	1134.62927	
8270	82.690	-1160.40491	799.48431	1135.73499	
8271	82.700	-1161.49231	791.01190	1136.45227	
8272	82.710	-1163.19836	781.32178	1137.05920	
8273	82.720	-1165.16321	772.36719	1138.36060	
8274	82.730	-1166.53979	763.13983	1138.88660	
8275	82.740	-1168.85583	754.23083	1139.08569	
8276	82.750	-1170.60852	744.91638	1139.71655	
8277	82.760	-1172.96191	735.85480	1140.71045	
8278	82.770	-1174.33997	727.03290	1140.90942	
8279	82.780	-1176.22327	718.32678	1140.98218	
8280	82.790	-1177.81812	708.93921	1140.89978	
8281	82.800	-1179.56177	700.31030	1141.34851	
8282	82.810	-1180.94653	691.52332	1141.84778	
8283	82.820	-1183.61877	682.14514	1142.67786	
8284	82.830	-1185.27161	673.12665	1143.30017	
8285	82.840	-1186.67480	664.92834	1143.13574	
8286	82.850	-1188.00562	656.11194	1143.35535	
8287	82.860	-1190.62537	646.66235	1144.58057	
8288	82.870	-1191.99707	637.39417	1144.46765	
8289	82.880	-1193.73157	628.68896	1144.70557	
8290	82.890	-1195.45178	620.14655	1144.92542	
8291	82.900	-1197.66541	610.90155	1144.71643	
8292	82.910	-1199.05640	601.67200	1144.89783	
8293	82.920	-1200.48633	592.54285	1144.27185	
8294	82.930	-1202.90039	582.56415	1145.05249	
8295	82.940	-1204.83911	573.04987	1144.35352	
8296	82.950	-1206.87170	563.83228	1144.13330	
8297	82.960	-1207.90247	554.18835	1143.45190	
8298	82.970	-1210.32825	544.35114	1142.98083	
8299	82.980	-1211.79041	534.77032	1141.44458	
8300	82.990	-1213.74231	525.21210	1141.17664	
8301	83.000	-1214.88550	514.68604	1139.76892	
8302	83.010	-1216.87378	505.32443	1138.96753	
8303	83.020	-1218.71118	495.72632	1138.28247	
8304	83.030	-1220.39917	485.77774	1137.12610	
8305	83.040	-1222.11560	475.66553	1136.41797	
8306	83.050	-1224.18738	465.65747	1135.08167	
8307	83.060	-1225.84705	455.95340	1134.39832	
8308	83.070	-1227.75281	446.53723	1133.40283	
8309	83.080	-1229.26135	436.52936	1132.71423	
8310	83.090	-1231.26367	426.90067	1132.16833	
8311	83.100	-1232.68555	417.60513	1131.04553	
8312	83.110	-1235.53296	407.82895	1131.52454	
8313	83.120	-1236.63757	398.13089	1130.39417	
8314	83.130	-1238.84656	388.72003	1131.01404	
8315	83.140	-1239.90198	379.17807	1130.47241	
8316	83.150	-1241.63489	370.63715	1130.60217	
8317	83.160	-1243.28040	361.92383	1130.59387	
8318	83.170	-1244.39709	352.81323	1130.14893	
8319	83.180	-1245.36853	344.08838	1130.40515	
8320	83.190	-1247.16248	335.83453	1130.83118	
8321	83.200	-1248.22559	327.51279	1131.78394	
8322	83.210	-1249.29797	319.79935	1132.41785	
8323	83.220	-1249.93591	311.77246	1133.14734	
8324	83.230	-1250.86633	304.07428	1134.00708	
8325	83.240	-1251.92188	296.00473	1135.31360	
8326	83.250	-1252.87122	287.44543	1137.19019	
8327	83.260	-1253.99353	278.93341	1138.39990	
8328	83.270	-1254.51172	271.57178	1139.38721	
8329	83.280	-1255.61743	262.91479	1140.47852	
8330	83.290	-1256.74170	254.37862	1141.96741	
8331	83.300	-1257.55981	245.57948	1142.99780	
8332	83.310	-1258.34180	236.51480	1143.91980	
8333	83.320	-1259.54822	227.67706	1144.70239	
8334	83.330	-1260.89685	218.94295	1146.24438	
8335	83.340	-1261.83679	210.67873	1146.97791	
8336	83.350	-1262.10596	203.59091	1147.53699	
8337	83.360	-1263.28503	195.79008	1149.26318	
8338	83.370	-1264.15308	186.35051	1151.94287	
8339	83.380	-1265.06592	178.76949	1153.54688	
8340	83.390	-1265.48962	171.41203	1154.99890	
8341	83.400	-1266.19910	163.88805	1156.89026	
8342	83.410	-1266.83301	155.88867	1158.93103	
8343	83.420	-1267.56201	148.01877	1160.32251	
8344	83.430	-1268.15625	141.31496	1160.79285	
8345	83.440	-1268.93274	132.21336	1163.41138	
8346	83.450	-1269.57263	123.78465	1163.95703	
8347	83.460	-1269.71216	115.58719	1164.21973	
8348	83.470	-1270.21655	106.37127	1164.71570	
8349	83.480	-1269.90723	97.96844	1164.54419	
8350	83.490	-1270.30432	90.18224	1163.78162	
8351	83.500	-1270.28381	79.85033	1163.60522	
8352	83.510	-1270.19214	70.26194	1163.16992	
8353	83.520	-1270.04333	60.96423	1162.58545	
8354	83.530	-1270.15918	52.75759	1161.27783	
8355	83.540	-1270.25916	41.57072	1160.86450	
8356	83.550	-1268.28589	32.53572	1159.76880	
8357	83.560	-1267.42395	23.73982	1158.15784	
8358	83.570	-1269.57422	13.83507	1158.37854	
8359	83.580	-1269.41040	4.34558	1157.29358	
8360	83.590	-1267.89551	-5.16181	1156.06726	
8361	83.600	-1267.52234	-15.83455	1155.94739	
8362	83.610	-1267.43958	-25.50284	1155.64954	
8363	83.620	-1267.27466	-35.91386	1154.46558	
8364	83.630	-1267.50769	-45.78043	1153.98633	
